<svg width="376" height="114" viewBox="0 0 376 114" fill="none" xmlns="http://www.w3.org/2000/svg">
<path d="M91.4897 69.3796C91.4897 92.4534 72.7138 111.23 49.6401 111.23C26.5663 111.23 7.78955 92.4535 7.78955 69.3796C7.78976 46.306 26.5664 27.53 49.6401 27.53C72.7137 27.5302 91.4895 46.3061 91.4897 69.3796ZM79.4995 69.3796C79.4993 52.9138 66.106 39.5205 49.6401 39.5203C33.1741 39.5203 19.78 52.9137 19.7798 69.3796C19.7798 85.8458 33.174 99.24 49.6401 99.24C66.1061 99.2398 79.4995 85.8456 79.4995 69.3796Z" fill="white" stroke="white"/>
<path d="M57.3091 56.8831C55.4957 62.7523 50.7428 67.4683 43.3735 70.7024C44.243 67.8572 43.9381 65.6886 42.7437 64.2532C41.4159 62.6578 39.1389 62.1502 36.7397 62.4797C31.9333 63.14 26.1482 67.2072 24.7505 74.0295C20.9563 92.5468 34.3517 103.486 42.979 110.743C25.3326 107.659 13.6776 95.0149 9.28857 81.5559C4.7492 67.6352 8.0144 53.0362 20.2007 47.1282C29.0597 43.8263 41.5622 47.1379 57.3091 56.8831Z" fill="white" stroke="white"/>
<path d="M57.0049 55.5703C42.7444 47.4079 32.1993 45.031 24.3506 46.3936C16.9247 47.6828 12.0126 52.3002 8.7041 58.2959C8.40626 49.2446 10.6667 39.1824 16.4043 32.7012L16.7158 32.3496L16.3828 32.0166C10.938 26.5717 9.02088 20.1937 9.7373 13.0098L9.76562 12.7275L9.53809 12.5586C6.63547 10.4041 4.83416 8.85832 3.52539 7.33203C2.55765 6.20343 1.85098 5.07398 1.16699 3.69434L50.041 34.457L57.0049 55.5703Z" fill="white" stroke="white"/>
<path d="M19.9863 14.3789C19.7814 12.0773 20.2603 10.1476 21.8545 8.71191L22.2266 8.37598L21.8906 8.00488C20.1706 6.10078 19.4171 3.89207 19.3496 1.43262L37.9922 25.7354L19.9863 14.3789Z" fill="white" stroke="white"/>
<path d="M106.709 111.73H97.9595V31.73H106.709V111.73Z" fill="white" stroke="white" stroke-width="3" stroke-miterlimit="10"/>
<path d="M123.029 31.73C124.949 31.73 126.569 32.39 127.879 33.7C129.199 35.02 129.849 36.62 129.849 38.5C129.849 40.38 129.189 41.98 127.879 43.3C126.569 44.62 124.959 45.27 123.079 45.27C121.199 45.27 119.589 44.59 118.279 43.24C116.959 41.89 116.309 40.31 116.309 38.49C116.309 36.67 116.969 35.09 118.279 33.74C119.599 32.39 121.179 31.71 123.029 31.71V31.73ZM127.509 111.73H118.659V53.6H127.509V111.73Z" fill="white" stroke="white" stroke-width="3" stroke-miterlimit="10"/>
<path d="M194.929 51.6799L168.369 111.73H166.239L139.469 51.6799H148.749L167.199 93.7099L185.649 51.6799H194.929Z" fill="white" stroke="white" stroke-width="3" stroke-miterlimit="10"/>
<path d="M211.26 31.73C213.18 31.73 214.8 32.39 216.11 33.7C217.43 35.02 218.08 36.62 218.08 38.5C218.08 40.38 217.42 41.98 216.11 43.3C214.8 44.62 213.19 45.27 211.31 45.27C209.43 45.27 207.82 44.59 206.51 43.24C205.19 41.89 204.54 40.31 204.54 38.49C204.54 36.67 205.2 35.09 206.51 33.74C207.83 32.39 209.41 31.71 211.26 31.71V31.73ZM215.74 111.73H206.89V53.6H215.74V111.73Z" fill="white" stroke="white" stroke-width="3" stroke-miterlimit="10"/>
<path d="M278.669 110.24H269.819V101.49C264.059 108.32 257.229 111.73 249.339 111.73C245.139 111.73 241.339 110.65 237.929 108.48C234.519 106.31 231.959 103.32 230.249 99.5201C228.539 95.7201 227.689 89.8701 227.689 81.9701V52.1001H236.439V79.8301C236.439 86.2301 236.739 90.5901 237.349 92.9001C237.949 95.2101 238.839 97.1701 240.019 98.7701C241.189 100.37 242.689 101.56 244.499 102.34C246.309 103.12 248.519 103.51 251.109 103.51C253.699 103.51 256.249 102.87 258.739 101.59C261.229 100.31 263.359 98.5301 265.139 96.2601C266.919 93.9901 268.139 91.5701 268.819 89.0101C269.499 86.4501 269.829 81.3301 269.829 73.6501V52.1001H278.679V110.23L278.669 110.24Z" fill="white" stroke="white" stroke-width="3" stroke-miterlimit="10"/>
<path d="M374.469 111.73H365.509V80.0501C365.509 75.0001 365.209 71.3001 364.599 68.9601C363.989 66.6101 362.679 64.6401 360.649 63.0401C358.619 61.4401 355.959 60.6401 352.649 60.6401C349.339 60.6401 346.229 61.7101 343.319 63.8401C340.399 65.9701 338.379 68.8701 337.239 72.5301C336.099 76.1901 335.529 81.6101 335.529 88.8001V111.73H326.889V81.9701C326.889 76.1401 326.589 71.9401 325.979 69.3801C325.369 66.8201 324.039 64.7201 321.979 63.0901C319.919 61.4501 317.319 60.6401 314.189 60.6401C311.059 60.6401 308.089 61.6201 305.279 63.5701C302.469 65.5301 300.389 68.0901 299.039 71.2501C297.689 74.4201 297.009 79.6601 297.009 86.9801V111.73H288.259V53.6001H297.009V61.8101C301.989 55.3401 308.209 52.1001 315.679 52.1001C319.729 52.1001 323.409 53.1901 326.719 55.3501C330.029 57.5201 332.389 60.6001 333.809 64.5801C336.229 60.5301 339.249 57.4301 342.879 55.3001C346.509 53.1701 350.349 52.1001 354.399 52.1001C359.949 52.1001 364.679 54.0601 368.589 57.9701C372.499 61.8801 374.459 69.2401 374.459 80.0501V111.73H374.469Z" fill="white" stroke="white" stroke-width="3" stroke-miterlimit="10"/>
</svg>
