<svg width="435" height="322" viewBox="0 0 435 322" fill="none" xmlns="http://www.w3.org/2000/svg">
<g clip-path="url(#clip0_60994_2021)">
<path d="M69.9 194.22C46.55 194.22 27.55 175.22 27.55 151.87C27.55 128.52 46.55 109.52 69.9 109.52C93.25 109.52 112.25 128.52 112.25 151.87C112.25 175.22 93.25 194.22 69.9 194.22ZM69.9 122.51C53.71 122.51 40.54 135.68 40.54 151.87C40.54 168.06 53.71 181.23 69.9 181.23C86.09 181.23 99.26 168.06 99.26 151.87C99.26 135.68 86.09 122.51 69.9 122.51Z" fill="url(#paint0_linear_60994_2021)"/>
<path d="M62.8001 154.09C71.0001 150.75 76.3002 145.65 78.1602 139.15C62.2302 129.23 49.4202 125.73 40.2602 129.16C15.2302 141.27 27.2402 188.88 64.9202 194C56.3702 186.7 41.5702 175.8 45.5002 156.62C48.2002 143.44 67.8801 140.9 62.8001 154.08V154.09Z" fill="url(#paint1_linear_60994_2021)"/>
<path d="M20.2599 84.8601L70.7199 116.62L78.1499 139.15C48.5499 121.81 35.0699 129.26 28.5599 142.65C27.8699 133.08 30.0399 121.92 36.2899 114.86C30.7299 109.3 28.7699 102.77 29.4999 95.4501C23.6799 91.1301 22.1499 89.1601 20.2599 84.8601Z" fill="#532C75"/>
<path d="M60.3501 110.14L39.1401 82.49C38.9201 85.62 39.6301 88.45 41.7801 90.83C39.9701 92.46 39.5001 94.66 39.7701 97.16L60.3501 110.14Z" fill="url(#paint2_linear_60994_2021)"/>
<path d="M126.97 194.22H118.22V114.22H126.97V194.22Z" fill="#552B79" stroke="#552B79" stroke-width="3" stroke-miterlimit="10"/>
<path d="M143.29 114.22C145.21 114.22 146.83 114.88 148.14 116.19C149.46 117.51 150.11 119.11 150.11 120.99C150.11 122.87 149.45 124.47 148.14 125.79C146.83 127.11 145.22 127.76 143.34 127.76C141.46 127.76 139.85 127.08 138.54 125.73C137.22 124.38 136.57 122.8 136.57 120.98C136.57 119.16 137.23 117.58 138.54 116.23C139.86 114.88 141.44 114.2 143.29 114.2V114.22ZM147.77 194.22H138.92V136.09H147.77V194.22Z" fill="#552B79" stroke="#552B79" stroke-width="3" stroke-miterlimit="10"/>
<path d="M215.19 134.17L188.63 194.22H186.5L159.73 134.17H169.01L187.46 176.2L205.91 134.17H215.19Z" fill="#552B79" stroke="#552B79" stroke-width="3" stroke-miterlimit="10"/>
<path d="M231.52 114.22C233.44 114.22 235.06 114.88 236.37 116.19C237.69 117.51 238.34 119.11 238.34 120.99C238.34 122.87 237.68 124.47 236.37 125.79C235.06 127.11 233.45 127.76 231.57 127.76C229.69 127.76 228.08 127.08 226.77 125.73C225.45 124.38 224.8 122.8 224.8 120.98C224.8 119.16 225.46 117.58 226.77 116.23C228.09 114.88 229.67 114.2 231.52 114.2V114.22ZM236 194.22H227.15V136.09H236V194.22Z" fill="#552B79" stroke="#552B79" stroke-width="3" stroke-miterlimit="10"/>
<path d="M298.93 192.73H290.08V183.98C284.32 190.81 277.49 194.22 269.6 194.22C265.4 194.22 261.6 193.14 258.19 190.97C254.78 188.8 252.22 185.81 250.51 182.01C248.8 178.21 247.95 172.36 247.95 164.46V134.59H256.7V162.32C256.7 168.72 257 173.08 257.61 175.39C258.21 177.7 259.1 179.66 260.28 181.26C261.45 182.86 262.95 184.05 264.76 184.83C266.57 185.61 268.78 186 271.37 186C273.96 186 276.51 185.36 279 184.08C281.49 182.8 283.62 181.02 285.4 178.75C287.18 176.48 288.4 174.06 289.08 171.5C289.76 168.94 290.09 163.82 290.09 156.14V134.59H298.94V192.72L298.93 192.73Z" fill="#552B79" stroke="#552B79" stroke-width="3" stroke-miterlimit="10"/>
<path d="M394.73 194.22H385.77V162.54C385.77 157.49 385.47 153.79 384.86 151.45C384.25 149.1 382.94 147.13 380.91 145.53C378.88 143.93 376.22 143.13 372.91 143.13C369.6 143.13 366.49 144.2 363.58 146.33C360.66 148.46 358.64 151.36 357.5 155.02C356.36 158.68 355.79 164.1 355.79 171.29V194.22H347.15V164.46C347.15 158.63 346.85 154.43 346.24 151.87C345.63 149.31 344.3 147.21 342.24 145.58C340.18 143.94 337.58 143.13 334.45 143.13C331.32 143.13 328.35 144.11 325.54 146.06C322.73 148.02 320.65 150.58 319.3 153.74C317.95 156.91 317.27 162.15 317.27 169.47V194.22H308.52V136.09H317.27V144.3C322.25 137.83 328.47 134.59 335.94 134.59C339.99 134.59 343.67 135.68 346.98 137.84C350.29 140.01 352.65 143.09 354.07 147.07C356.49 143.02 359.51 139.92 363.14 137.79C366.77 135.66 370.61 134.59 374.66 134.59C380.21 134.59 384.94 136.55 388.85 140.46C392.76 144.37 394.72 151.73 394.72 162.54V194.22H394.73Z" fill="#552B79" stroke="#552B79" stroke-width="3" stroke-miterlimit="10"/>
</g>
<defs>
<linearGradient id="paint0_linear_60994_2021" x1="29.13" y1="151.87" x2="113.84" y2="151.87" gradientUnits="userSpaceOnUse">
<stop offset="0.05" stop-color="#7276A7"/>
<stop offset="0.33" stop-color="#6B679C"/>
<stop offset="0.86" stop-color="#5B4182"/>
<stop offset="1" stop-color="#57367B"/>
</linearGradient>
<linearGradient id="paint1_linear_60994_2021" x1="27.0902" y1="160.95" x2="78.1602" y2="160.95" gradientUnits="userSpaceOnUse">
<stop offset="0.05" stop-color="#7B659D"/>
<stop offset="0.4" stop-color="#674C8B"/>
<stop offset="0.74" stop-color="#5B3B7F"/>
<stop offset="1" stop-color="#57367B"/>
</linearGradient>
<linearGradient id="paint2_linear_60994_2021" x1="39.1001" y1="96.31" x2="60.3501" y2="96.31" gradientUnits="userSpaceOnUse">
<stop offset="0.05" stop-color="#7B659D"/>
<stop offset="0.4" stop-color="#674C8B"/>
<stop offset="0.74" stop-color="#5B3B7F"/>
<stop offset="1" stop-color="#57367B"/>
</linearGradient>
<clipPath id="clip0_60994_2021">
<rect width="321.41" height="434.46" fill="white" transform="matrix(0 1 -1 0 435 0)"/>
</clipPath>
</defs>
</svg>
